<svg width="24" height="24" viewBox="0 0 24 24" fill="none" xmlns="http://www.w3.org/2000/svg">
<g opacity="0.8" clip-path="url(#clip0_601_37)">
<path d="M23.6431 4.93655C22.8081 5.30655 21.9112 5.55654 20.9682 5.66954C21.9412 5.08734 22.6691 4.17103 23.0161 3.09158C22.102 3.63456 21.1015 4.01676 20.0582 4.22157C19.3566 3.47244 18.4273 2.97591 17.4146 2.80906C16.4018 2.64221 15.3624 2.81438 14.4575 3.29883C13.5527 3.78329 12.8331 4.55292 12.4105 5.48825C11.9879 6.42358 11.8859 7.47226 12.1203 8.4715C10.268 8.3785 8.45601 7.89706 6.80183 7.05843C5.14765 6.21979 3.6883 5.04271 2.51847 3.60358C2.11848 4.29356 1.88848 5.09355 1.88848 5.94554C1.88804 6.71252 2.07691 7.46776 2.43835 8.14424C2.79979 8.82071 3.32262 9.39752 3.96045 9.82348C3.22074 9.79994 2.49735 9.60006 1.85049 9.24049V9.30048C1.85041 10.3762 2.22251 11.4188 2.90365 12.2514C3.58479 13.084 4.53301 13.6553 5.58743 13.8684C4.90122 14.0541 4.18179 14.0815 3.48346 13.9484C3.78095 14.874 4.36044 15.6834 5.1408 16.2633C5.92116 16.8432 6.86332 17.1645 7.83539 17.1824C6.18525 18.4778 4.14734 19.1804 2.04948 19.1773C1.67787 19.1774 1.30657 19.1557 0.9375 19.1123C3.06694 20.4815 5.54577 21.2081 8.07739 21.2053C16.6472 21.2053 21.3322 14.1074 21.3322 7.95151C21.3322 7.75151 21.3272 7.54951 21.3182 7.34952C22.2295 6.6905 23.0161 5.87443 23.6411 4.93955L23.6431 4.93655Z" fill="#9093B1"/>
</g>
<defs>
<clipPath id="clip0_601_37">
<rect width="23.9996" height="23.9996" fill="white"/>
</clipPath>
</defs>
</svg>
