<svg width="25" height="24" viewBox="0 0 25 24" fill="none" xmlns="http://www.w3.org/2000/svg">
<g opacity="0.8" clip-path="url(#clip0_601_28)">
<path d="M19.3313 18.3397H16.6664V14.1628C16.6664 13.1668 16.6464 11.8848 15.2764 11.8848C13.8874 11.8848 13.6754 12.9688 13.6754 14.0898V18.3397H11.0095V9.75087H13.5694V10.9209H13.6044C13.9624 10.2469 14.8324 9.53387 16.1324 9.53387C18.8323 9.53387 19.3323 11.3118 19.3323 13.6248V18.3397H19.3313ZM7.99952 8.57589C7.79608 8.57615 7.59458 8.53626 7.40659 8.4585C7.2186 8.38073 7.0478 8.26663 6.90399 8.12273C6.76018 7.97883 6.64619 7.80796 6.56855 7.61992C6.49091 7.43187 6.45115 7.23035 6.45154 7.02691C6.45174 6.72075 6.54272 6.42153 6.71298 6.16707C6.88324 5.91262 7.12513 5.71437 7.40806 5.59739C7.69099 5.48041 8.00225 5.44995 8.30249 5.50988C8.60273 5.5698 8.87846 5.71741 9.09481 5.93404C9.31116 6.15066 9.45841 6.42658 9.51794 6.7269C9.57748 7.02722 9.54662 7.33844 9.42928 7.62122C9.31193 7.904 9.11337 8.14563 8.8587 8.31556C8.60402 8.48549 8.30468 8.57609 7.99852 8.57589H7.99952ZM9.3355 18.3397H6.66254V9.75087H9.3365V18.3397H9.3355ZM20.6663 3.00098H5.32556C4.58957 3.00098 3.99658 3.58097 3.99658 4.29796V19.7037C3.99658 20.4207 4.59057 21.0007 5.32456 21.0007H20.6623C21.3963 21.0007 21.9963 20.4207 21.9963 19.7037V4.29796C21.9963 3.58097 21.3963 3.00098 20.6623 3.00098H20.6653H20.6663Z" fill="#9093B1"/>
</g>
<defs>
<clipPath id="clip0_601_28">
<rect width="23.9996" height="23.9996" fill="white" transform="translate(0.99707)"/>
</clipPath>
</defs>
</svg>
