<svg width="24" height="24" viewBox="0 0 24 24" fill="none" xmlns="http://www.w3.org/2000/svg">
<g opacity="0.8">
<path fill-rule="evenodd" clip-rule="evenodd" d="M7.46392 1.06698C8.6369 1.01298 9.0109 1.00098 11.9988 1.00098C14.9868 1.00098 15.3608 1.01398 16.5328 1.06698C17.7048 1.11997 18.5047 1.30697 19.2047 1.57797C19.9377 1.85496 20.6027 2.28796 21.1527 2.84795C21.7127 3.39694 22.1447 4.06093 22.4207 4.79492C22.6927 5.4949 22.8787 6.29489 22.9327 7.46487C22.9867 8.63985 22.9987 9.01385 22.9987 12.0008C22.9987 14.9888 22.9857 15.3627 22.9327 16.5357C22.8797 17.7057 22.6927 18.5057 22.4207 19.2057C22.1447 19.9398 21.712 20.6049 21.1527 21.1547C20.6027 21.7146 19.9377 22.1466 19.2047 22.4226C18.5047 22.6946 17.7048 22.8806 16.5348 22.9346C15.3608 22.9886 14.9868 23.0006 11.9988 23.0006C9.0109 23.0006 8.6369 22.9876 7.46392 22.9346C6.29394 22.8816 5.49395 22.6946 4.79396 22.4226C4.0599 22.1466 3.39481 21.7139 2.84499 21.1547C2.28538 20.6053 1.85232 19.9406 1.57601 19.2067C1.30502 18.5067 1.11902 17.7067 1.06502 16.5367C1.01102 15.3617 0.999023 14.9878 0.999023 12.0008C0.999023 9.01285 1.01202 8.63885 1.06502 7.46687C1.11802 6.29489 1.30502 5.4949 1.57601 4.79492C1.85273 4.06101 2.28612 3.39625 2.84599 2.84695C3.39503 2.28746 4.05945 1.85441 4.79296 1.57797C5.49295 1.30697 6.29294 1.12097 7.46292 1.06698H7.46392ZM16.4438 3.04694C15.2838 2.99394 14.9358 2.98294 11.9988 2.98294C9.06189 2.98294 8.7139 2.99394 7.55392 3.04694C6.48094 3.09594 5.89895 3.27494 5.51095 3.42594C4.99796 3.62593 4.63097 3.86293 4.24597 4.24792C3.88102 4.60297 3.60016 5.03519 3.42398 5.5129C3.27299 5.9009 3.09399 6.48289 3.04499 7.55587C2.99199 8.71585 2.98099 9.06385 2.98099 12.0008C2.98099 14.9378 2.99199 15.2857 3.04499 16.4457C3.09399 17.5187 3.27299 18.1007 3.42398 18.4887C3.59998 18.9657 3.88098 19.3987 4.24597 19.7537C4.60097 20.1187 5.03396 20.3997 5.51095 20.5757C5.89895 20.7267 6.48094 20.9057 7.55392 20.9547C8.7139 21.0077 9.06089 21.0187 11.9988 21.0187C14.9368 21.0187 15.2838 21.0077 16.4438 20.9547C17.5168 20.9057 18.0988 20.7267 18.4867 20.5757C18.9997 20.3757 19.3667 20.1387 19.7517 19.7537C20.1167 19.3987 20.3977 18.9657 20.5737 18.4887C20.7247 18.1007 20.9037 17.5187 20.9527 16.4457C21.0057 15.2857 21.0167 14.9378 21.0167 12.0008C21.0167 9.06385 21.0057 8.71585 20.9527 7.55587C20.9037 6.48289 20.7247 5.9009 20.5737 5.5129C20.3737 4.99991 20.1367 4.63292 19.7517 4.24792C19.3967 3.883 18.9644 3.60215 18.4867 3.42594C18.0988 3.27494 17.5168 3.09594 16.4438 3.04694ZM10.5939 15.3917C11.3785 15.7184 12.2522 15.7625 13.0658 15.5165C13.8793 15.2705 14.5822 14.7497 15.0544 14.043C15.5266 13.3363 15.7388 12.4877 15.6548 11.6419C15.5708 10.7962 15.1958 10.0058 14.5938 9.40584C14.21 9.02232 13.746 8.72867 13.2352 8.546C12.7243 8.36334 12.1793 8.29622 11.6393 8.34947C11.0994 8.40273 10.578 8.57503 10.1127 8.85398C9.64734 9.13293 9.24964 9.51159 8.9482 9.96268C8.64676 10.4138 8.44909 10.9261 8.36942 11.4628C8.28975 11.9994 8.33006 12.5471 8.48744 13.0663C8.64483 13.5855 8.91538 14.0634 9.27961 14.4655C9.64385 14.8676 10.0927 15.1839 10.5939 15.3917ZM8.00091 8.00286C8.52593 7.47785 9.14921 7.06138 9.83518 6.77725C10.5211 6.49311 11.2564 6.34687 11.9988 6.34687C12.7413 6.34687 13.4765 6.49311 14.1625 6.77725C14.8485 7.06138 15.4718 7.47785 15.9968 8.00286C16.5218 8.52788 16.9383 9.15117 17.2224 9.83713C17.5065 10.5231 17.6528 11.2583 17.6528 12.0008C17.6528 12.7433 17.5065 13.4785 17.2224 14.1645C16.9383 14.8504 16.5218 15.4737 15.9968 15.9987C14.9365 17.0591 13.4984 17.6547 11.9988 17.6547C10.4993 17.6547 9.06123 17.0591 8.00091 15.9987C6.94059 14.9384 6.34491 13.5003 6.34491 12.0008C6.34491 10.5013 6.94059 9.06318 8.00091 8.00286ZM18.9067 7.18888C19.0368 7.06615 19.141 6.91856 19.213 6.75486C19.2851 6.59115 19.3235 6.41466 19.3261 6.23582C19.3288 6.05699 19.2955 5.87945 19.2282 5.71371C19.161 5.54798 19.0612 5.39742 18.9347 5.27095C18.8082 5.14448 18.6577 5.04467 18.4919 4.97743C18.3262 4.91019 18.1487 4.87689 17.9698 4.8795C17.791 4.8821 17.6145 4.92057 17.4508 4.99261C17.2871 5.06465 17.1395 5.16881 17.0168 5.29891C16.7781 5.55193 16.6474 5.88802 16.6525 6.23582C16.6575 6.58363 16.798 6.91576 17.0439 7.16172C17.2899 7.40768 17.622 7.5481 17.9698 7.55317C18.3176 7.55824 18.6537 7.42756 18.9067 7.18888Z" fill="#9093B1"/>
</g>
</svg>
