<svg width="25" height="24" viewBox="0 0 25 24" fill="none" xmlns="http://www.w3.org/2000/svg">
<g opacity="0.8">
<path d="M22.4543 10.1551C22.5773 10.8141 22.6443 11.5031 22.6443 12.2221C22.6443 17.846 18.8803 21.8449 13.1954 21.8449C11.9026 21.8453 10.6224 21.591 9.42786 21.0964C8.23338 20.6018 7.14804 19.8768 6.23388 18.9626C5.31971 18.0484 4.59464 16.9631 4.10008 15.7686C3.60552 14.5741 3.35117 13.2939 3.35156 12.0011C3.35117 10.7082 3.60552 9.42802 4.10008 8.23353C4.59464 7.03904 5.31971 5.95371 6.23388 5.03954C7.14804 4.12538 8.23338 3.4003 9.42786 2.90574C10.6224 2.41118 11.9026 2.15683 13.1954 2.15723C15.8534 2.15723 18.0743 3.13521 19.7783 4.72319L17.0033 7.49814V7.49114C15.9704 6.50716 14.6594 6.00217 13.1954 6.00217C9.94746 6.00217 7.3075 8.74612 7.3075 11.9951C7.3075 15.243 9.94746 17.993 13.1954 17.993C16.1424 17.993 18.1483 16.308 18.5603 13.994H13.1954V10.1551H22.4553H22.4543Z" fill="#9093B1"/>
</g>
</svg>
